<?xml version="1.0" encoding="UTF-8" standalone="no"?>
<!-- Created with Inkscape (http://www.inkscape.org/) -->

<svg
   width="30.055756mm"
   height="24.317327mm"
   viewBox="0 0 30.055756 24.317327"
   version="1.1"
   id="svg5"
   xml:space="preserve"
   inkscape:version="1.2.2 (732a01da63, 2022-12-09)"
   sodipodi:docname="marrazkia.svg"
   xmlns:inkscape="http://www.inkscape.org/namespaces/inkscape"
   xmlns:sodipodi="http://sodipodi.sourceforge.net/DTD/sodipodi-0.dtd"
   xmlns="http://www.w3.org/2000/svg"
   xmlns:svg="http://www.w3.org/2000/svg"><sodipodi:namedview
     id="namedview7"
     pagecolor="#ffffff"
     bordercolor="#000000"
     borderopacity="0.25"
     inkscape:showpageshadow="2"
     inkscape:pageopacity="0.0"
     inkscape:pagecheckerboard="0"
     inkscape:deskcolor="#d1d1d1"
     inkscape:document-units="mm"
     showgrid="false"
     inkscape:zoom="47.721212"
     inkscape:cx="316.81928"
     inkscape:cy="146.39192"
     inkscape:window-width="1920"
     inkscape:window-height="1017"
     inkscape:window-x="-8"
     inkscape:window-y="-8"
     inkscape:window-maximized="1"
     inkscape:current-layer="layer1" /><defs
     id="defs2" /><g
     inkscape:label="Geruza 1"
     inkscape:groupmode="layer"
     id="layer1"
     transform="translate(-58.744031,-26.240808)"><path
       style="fill:#06cbad;fill-opacity:1;stroke-width:21.8321;stroke-dasharray:none"
       d="m 77.932136,26.240807 -1.407849,1.514386 1.942087,1.689697 -1.850463,1.904816 7.187686,7.394053 1.700426,-1.809341 1.744462,1.65066 1.551304,-1.573672 z"
       id="path3570"
       sodipodi:nodetypes="ccccccccc"
       inkscape:export-filename="path3570.svg"
       inkscape:export-xdpi="96"
       inkscape:export-ydpi="96" /><path
       style="fill:#866bfa;fill-opacity:1;stroke-width:21.661;stroke-dasharray:none"
       d="m 76.613452,27.733269 -1.724999,1.779885 1.732839,1.842613 -7.244992,7.127378 -1.724999,-1.693635 -1.625026,1.723039 -1.511337,-1.534856 10.757718,-10.506808 z"
       id="path4989"
       sodipodi:nodetypes="ccccccccc" /><path
       style="fill:#881b6e;fill-opacity:1;stroke-width:21.661;stroke-dasharray:none"
       d="M 58.744034,37.165875 Z"
       id="path7558" /><path
       style="fill:#881b6e;fill-opacity:1;stroke-width:21.661;stroke-dasharray:none"
       d="m 69.378956,38.48303 -1.625725,1.619146 -1.74852,-1.61119 1.642785,-1.736644 z"
       id="path8028"
       sodipodi:nodetypes="ccccc" /><path
       style="fill:#f5cc00;fill-opacity:1;stroke-width:21.661;stroke-dasharray:none"
       d="M 81.702197,33.90406 Z"
       id="path9992" /><path
       style="fill:#f5cc00;fill-opacity:1;stroke-width:21.661;stroke-dasharray:none"
       d="m 83.748671,38.608601 -7.22423,7.057136 1.853214,1.693309 -1.630704,1.59741 1.61737,1.496986 10.394687,-10.558935 -1.479634,-1.354574 -1.719454,1.809348 z"
       id="path10324"
       sodipodi:nodetypes="ccccccccc" /><path
       style="fill:#000000;fill-opacity:1;stroke-width:21.661;stroke-dasharray:none"
       d="m 74.51822,35.152322 4.681725,-0.01654 4e-6,1.739547 -3.004412,-0.01512 -0.0037,1.008691 3.009323,0.03407 -0.01187,1.587781 -2.994934,-0.02593 0.02339,1.00592 2.976991,0.0231 -0.0017,1.825368 -4.67147,0.03479 z"
       id="path10809"
       sodipodi:nodetypes="ccccccccccccc" /><path
       style="fill:#fd456b;fill-opacity:1;stroke-width:21.661;stroke-dasharray:none"
       d="m 69.360405,38.367474 7.19025,7.322742 -1.584024,1.670732 1.783921,1.60112 -1.540624,1.596065 -10.652933,-10.814879 1.464039,-1.248134 1.736331,1.60839 z"
       id="path8084"
       sodipodi:nodetypes="ccccccccc" /><path
       style="fill:#033846;fill-opacity:1;stroke-width:21.661;stroke-dasharray:none"
       d="m 76.576937,27.699445 -1.704166,1.821551 1.741238,1.839133 1.887196,-1.942968 z"
       id="path4657"
       sodipodi:nodetypes="ccccc" /><path
       style="fill:#f83700;fill-opacity:1;stroke-width:21.661;stroke-dasharray:none"
       d="m 76.527201,45.665411 1.850454,1.693635 -1.630908,1.599543 -1.787726,-1.599543 z"
       id="path9990" /><path
       style="fill:#06a300;fill-opacity:1;stroke-width:21.661;stroke-dasharray:none"
       d="m 85.497193,36.883601 -1.787726,1.756363 1.819089,1.756362 1.756363,-1.850453 z"
       id="path9244" /></g></svg>
